<svg xmlns="http://www.w3.org/2000/svg" width="1280" height="2560" viewBox="0 0 1280 2560">
  <defs>
    <style>
      .ground { fill: #57b84f; fill-opacity: 0.28; stroke: #2d6a30; stroke-width: 1; }
      .frame { fill: none; stroke: #1c2b3a; stroke-width: 2; }
      .label { fill: #1c2b3a; font-family: 'Trebuchet MS', 'Segoe UI', sans-serif; font-size: 18px; }
    </style>
  </defs>
  <rect class="frame" x="1" y="1" width="1278" height="2558" />
  <text class="label" x="14" y="26">Guia suelo: nivel-2 (40x80 tiles)</text>
  <g class="ground"><rect x="1024" y="96" width="32" height="32" /><rect x="1056" y="96" width="32" height="32" /><rect x="1088" y="96" width="32" height="32" /><rect x="0" y="128" width="32" height="32" /><rect x="0" y="160" width="32" height="32" /><rect x="672" y="160" width="32" height="32" /><rect x="704" y="160" width="32" height="32" /><rect x="736" y="160" width="32" height="32" /><rect x="768" y="160" width="32" height="32" /><rect x="800" y="160" width="32" height="32" /><rect x="0" y="192" width="32" height="32" /><rect x="416" y="192" width="32" height="32" /><rect x="448" y="192" width="32" height="32" /><rect x="480" y="192" width="32" height="32" /><rect x="512" y="192" width="32" height="32" /><rect x="0" y="224" width="32" height="32" /><rect x="896" y="224" width="32" height="32" /><rect x="928" y="224" width="32" height="32" /><rect x="960" y="224" width="32" height="32" /><rect x="992" y="224" width="32" height="32" /><rect x="1024" y="224" width="32" height="32" /><rect x="1056" y="224" width="32" height="32" /><rect x="1088" y="224" width="32" height="32" /><rect x="1120" y="224" width="32" height="32" /><rect x="1152" y="224" width="32" height="32" /><rect x="1184" y="224" width="32" height="32" /><rect x="0" y="256" width="32" height="32" /><rect x="768" y="256" width="32" height="32" /><rect x="800" y="256" width="32" height="32" /><rect x="832" y="256" width="32" height="32" /><rect x="864" y="256" width="32" height="32" /><rect x="896" y="256" width="32" height="32" /><rect x="1216" y="256" width="32" height="32" /><rect x="1248" y="256" width="32" height="32" /><rect x="0" y="288" width="32" height="32" /><rect x="512" y="288" width="32" height="32" /><rect x="544" y="288" width="32" height="32" /><rect x="576" y="288" width="32" height="32" /><rect x="672" y="288" width="32" height="32" /><rect x="704" y="288" width="32" height="32" /><rect x="736" y="288" width="32" height="32" /><rect x="768" y="288" width="32" height="32" /><rect x="1248" y="288" width="32" height="32" /><rect x="0" y="320" width="32" height="32" /><rect x="416" y="320" width="32" height="32" /><rect x="448" y="320" width="32" height="32" /><rect x="480" y="320" width="32" height="32" /><rect x="608" y="320" width="32" height="32" /><rect x="640" y="320" width="32" height="32" /><rect x="672" y="320" width="32" height="32" /><rect x="1248" y="320" width="32" height="32" /><rect x="0" y="352" width="32" height="32" /><rect x="288" y="352" width="32" height="32" /><rect x="320" y="352" width="32" height="32" /><rect x="352" y="352" width="32" height="32" /><rect x="384" y="352" width="32" height="32" /><rect x="416" y="352" width="32" height="32" /><rect x="1248" y="352" width="32" height="32" /><rect x="0" y="384" width="32" height="32" /><rect x="288" y="384" width="32" height="32" /><rect x="1248" y="384" width="32" height="32" /><rect x="0" y="416" width="32" height="32" /><rect x="160" y="416" width="32" height="32" /><rect x="192" y="416" width="32" height="32" /><rect x="224" y="416" width="32" height="32" /><rect x="256" y="416" width="32" height="32" /><rect x="288" y="416" width="32" height="32" /><rect x="1248" y="416" width="32" height="32" /><rect x="0" y="448" width="32" height="32" /><rect x="1248" y="448" width="32" height="32" /><rect x="0" y="480" width="32" height="32" /><rect x="800" y="480" width="32" height="32" /><rect x="832" y="480" width="32" height="32" /><rect x="1248" y="480" width="32" height="32" /><rect x="0" y="512" width="32" height="32" /><rect x="32" y="512" width="32" height="32" /><rect x="544" y="512" width="32" height="32" /><rect x="640" y="512" width="32" height="32" /><rect x="672" y="512" width="32" height="32" /><rect x="704" y="512" width="32" height="32" /><rect x="736" y="512" width="32" height="32" /><rect x="768" y="512" width="32" height="32" /><rect x="800" y="512" width="32" height="32" /><rect x="1248" y="512" width="32" height="32" /><rect x="32" y="544" width="32" height="32" /><rect x="64" y="544" width="32" height="32" /><rect x="96" y="544" width="32" height="32" /><rect x="544" y="544" width="32" height="32" /><rect x="576" y="544" width="32" height="32" /><rect x="608" y="544" width="32" height="32" /><rect x="640" y="544" width="32" height="32" /><rect x="960" y="544" width="32" height="32" /><rect x="992" y="544" width="32" height="32" /><rect x="1024" y="544" width="32" height="32" /><rect x="1056" y="544" width="32" height="32" /><rect x="1248" y="544" width="32" height="32" /><rect x="96" y="576" width="32" height="32" /><rect x="128" y="576" width="32" height="32" /><rect x="160" y="576" width="32" height="32" /><rect x="192" y="576" width="32" height="32" /><rect x="224" y="576" width="32" height="32" /><rect x="256" y="576" width="32" height="32" /><rect x="288" y="576" width="32" height="32" /><rect x="320" y="576" width="32" height="32" /><rect x="352" y="576" width="32" height="32" /><rect x="384" y="576" width="32" height="32" /><rect x="416" y="576" width="32" height="32" /><rect x="448" y="576" width="32" height="32" /><rect x="480" y="576" width="32" height="32" /><rect x="512" y="576" width="32" height="32" /><rect x="1248" y="576" width="32" height="32" /><rect x="1248" y="608" width="32" height="32" /><rect x="1248" y="640" width="32" height="32" /><rect x="1184" y="672" width="32" height="32" /><rect x="1216" y="672" width="32" height="32" /><rect x="1248" y="672" width="32" height="32" /><rect x="704" y="704" width="32" height="32" /><rect x="736" y="704" width="32" height="32" /><rect x="1152" y="704" width="32" height="32" /><rect x="1184" y="704" width="32" height="32" /><rect x="608" y="736" width="32" height="32" /><rect x="640" y="736" width="32" height="32" /><rect x="672" y="736" width="32" height="32" /><rect x="736" y="736" width="32" height="32" /><rect x="768" y="736" width="32" height="32" /><rect x="800" y="736" width="32" height="32" /><rect x="832" y="736" width="32" height="32" /><rect x="864" y="736" width="32" height="32" /><rect x="896" y="736" width="32" height="32" /><rect x="928" y="736" width="32" height="32" /><rect x="960" y="736" width="32" height="32" /><rect x="992" y="736" width="32" height="32" /><rect x="1024" y="736" width="32" height="32" /><rect x="1056" y="736" width="32" height="32" /><rect x="1088" y="736" width="32" height="32" /><rect x="1120" y="736" width="32" height="32" /><rect x="1152" y="736" width="32" height="32" /><rect x="512" y="768" width="32" height="32" /><rect x="544" y="768" width="32" height="32" /><rect x="576" y="768" width="32" height="32" /><rect x="448" y="800" width="32" height="32" /><rect x="480" y="800" width="32" height="32" /><rect x="512" y="800" width="32" height="32" /><rect x="416" y="832" width="32" height="32" /><rect x="448" y="832" width="32" height="32" /><rect x="416" y="864" width="32" height="32" /><rect x="0" y="896" width="32" height="32" /><rect x="32" y="896" width="32" height="32" /><rect x="64" y="896" width="32" height="32" /><rect x="96" y="896" width="32" height="32" /><rect x="128" y="896" width="32" height="32" /><rect x="384" y="896" width="32" height="32" /><rect x="416" y="896" width="32" height="32" /><rect x="128" y="928" width="32" height="32" /><rect x="352" y="928" width="32" height="32" /><rect x="384" y="928" width="32" height="32" /><rect x="128" y="960" width="32" height="32" /><rect x="352" y="960" width="32" height="32" /><rect x="128" y="992" width="32" height="32" /><rect x="256" y="992" width="32" height="32" /><rect x="288" y="992" width="32" height="32" /><rect x="320" y="992" width="32" height="32" /><rect x="352" y="992" width="32" height="32" /><rect x="128" y="1024" width="32" height="32" /><rect x="256" y="1024" width="32" height="32" /><rect x="128" y="1056" width="32" height="32" /><rect x="256" y="1056" width="32" height="32" /><rect x="128" y="1088" width="32" height="32" /><rect x="224" y="1088" width="32" height="32" /><rect x="256" y="1088" width="32" height="32" /><rect x="128" y="1120" width="32" height="32" /><rect x="160" y="1152" width="32" height="32" /><rect x="192" y="1184" width="32" height="32" /><rect x="224" y="1216" width="32" height="32" /><rect x="256" y="1248" width="32" height="32" /><rect x="320" y="1248" width="32" height="32" /><rect x="352" y="1248" width="32" height="32" /><rect x="224" y="1280" width="32" height="32" /><rect x="256" y="1280" width="32" height="32" /><rect x="384" y="1280" width="32" height="32" /><rect x="416" y="1280" width="32" height="32" /><rect x="448" y="1280" width="32" height="32" /><rect x="192" y="1312" width="32" height="32" /><rect x="224" y="1312" width="32" height="32" /><rect x="192" y="1344" width="32" height="32" /><rect x="192" y="1376" width="32" height="32" /><rect x="192" y="1408" width="32" height="32" /><rect x="224" y="1440" width="32" height="32" /><rect x="256" y="1440" width="32" height="32" /><rect x="416" y="1440" width="32" height="32" /><rect x="448" y="1440" width="32" height="32" /><rect x="480" y="1440" width="32" height="32" /><rect x="512" y="1440" width="32" height="32" /><rect x="256" y="1472" width="32" height="32" /><rect x="256" y="1504" width="32" height="32" /><rect x="288" y="1536" width="32" height="32" /><rect x="288" y="1568" width="32" height="32" /><rect x="320" y="1568" width="32" height="32" /><rect x="320" y="1600" width="32" height="32" /><rect x="352" y="1600" width="32" height="32" /><rect x="352" y="1632" width="32" height="32" /><rect x="384" y="1632" width="32" height="32" /><rect x="416" y="1632" width="32" height="32" /><rect x="448" y="1632" width="32" height="32" /><rect x="480" y="1632" width="32" height="32" /><rect x="512" y="1632" width="32" height="32" /><rect x="544" y="1632" width="32" height="32" /><rect x="576" y="1632" width="32" height="32" /><rect x="608" y="1632" width="32" height="32" /><rect x="640" y="1632" width="32" height="32" /><rect x="672" y="1632" width="32" height="32" /><rect x="704" y="1632" width="32" height="32" /><rect x="736" y="1632" width="32" height="32" /><rect x="768" y="1632" width="32" height="32" /><rect x="800" y="1632" width="32" height="32" /><rect x="832" y="1632" width="32" height="32" /><rect x="864" y="1632" width="32" height="32" /><rect x="864" y="1664" width="32" height="32" /><rect x="864" y="1696" width="32" height="32" /><rect x="896" y="1696" width="32" height="32" /><rect x="896" y="1728" width="32" height="32" /><rect x="928" y="1728" width="32" height="32" /><rect x="928" y="1760" width="32" height="32" /><rect x="960" y="1760" width="32" height="32" /><rect x="960" y="1792" width="32" height="32" /><rect x="992" y="1792" width="32" height="32" /><rect x="992" y="1824" width="32" height="32" /><rect x="1024" y="1824" width="32" height="32" /><rect x="1120" y="1888" width="32" height="32" /><rect x="1152" y="1888" width="32" height="32" /><rect x="1184" y="2016" width="32" height="32" /><rect x="1216" y="2016" width="32" height="32" /><rect x="1248" y="2016" width="32" height="32" /><rect x="1056" y="2048" width="32" height="32" /><rect x="1088" y="2048" width="32" height="32" /><rect x="1120" y="2048" width="32" height="32" /><rect x="1152" y="2048" width="32" height="32" /><rect x="960" y="2080" width="32" height="32" /><rect x="992" y="2080" width="32" height="32" /><rect x="1024" y="2080" width="32" height="32" /><rect x="800" y="2112" width="32" height="32" /><rect x="832" y="2112" width="32" height="32" /><rect x="864" y="2112" width="32" height="32" /><rect x="896" y="2112" width="32" height="32" /><rect x="736" y="2144" width="32" height="32" /><rect x="768" y="2144" width="32" height="32" /><rect x="704" y="2176" width="32" height="32" /><rect x="672" y="2208" width="32" height="32" /><rect x="608" y="2240" width="32" height="32" /><rect x="640" y="2240" width="32" height="32" /><rect x="672" y="2240" width="32" height="32" /><rect x="512" y="2272" width="32" height="32" /><rect x="544" y="2272" width="32" height="32" /><rect x="576" y="2272" width="32" height="32" /><rect x="608" y="2272" width="32" height="32" /><rect x="480" y="2304" width="32" height="32" /><rect x="512" y="2304" width="32" height="32" /><rect x="416" y="2336" width="32" height="32" /><rect x="448" y="2336" width="32" height="32" /><rect x="480" y="2336" width="32" height="32" /><rect x="320" y="2368" width="32" height="32" /><rect x="352" y="2368" width="32" height="32" /><rect x="384" y="2368" width="32" height="32" /><rect x="416" y="2368" width="32" height="32" /><rect x="960" y="2464" width="32" height="32" /><rect x="992" y="2464" width="32" height="32" /><rect x="1024" y="2464" width="32" height="32" /><rect x="1056" y="2464" width="32" height="32" /><rect x="1088" y="2464" width="32" height="32" /><rect x="1120" y="2464" width="32" height="32" /><rect x="1152" y="2464" width="32" height="32" /><rect x="1184" y="2464" width="32" height="32" /><rect x="1216" y="2464" width="32" height="32" /><rect x="1248" y="2464" width="32" height="32" /><rect x="64" y="2496" width="32" height="32" /><rect x="96" y="2496" width="32" height="32" /><rect x="128" y="2496" width="32" height="32" /><rect x="160" y="2496" width="32" height="32" /><rect x="192" y="2496" width="32" height="32" /><rect x="224" y="2496" width="32" height="32" /><rect x="256" y="2496" width="32" height="32" /><rect x="800" y="2496" width="32" height="32" /><rect x="832" y="2496" width="32" height="32" /><rect x="864" y="2496" width="32" height="32" /><rect x="896" y="2496" width="32" height="32" /><rect x="928" y="2496" width="32" height="32" /><rect x="960" y="2496" width="32" height="32" /><rect x="0" y="2528" width="32" height="32" /><rect x="32" y="2528" width="32" height="32" /><rect x="64" y="2528" width="32" height="32" /><rect x="256" y="2528" width="32" height="32" /><rect x="288" y="2528" width="32" height="32" /><rect x="320" y="2528" width="32" height="32" /><rect x="352" y="2528" width="32" height="32" /><rect x="384" y="2528" width="32" height="32" /><rect x="416" y="2528" width="32" height="32" /><rect x="448" y="2528" width="32" height="32" /><rect x="480" y="2528" width="32" height="32" /><rect x="512" y="2528" width="32" height="32" /><rect x="544" y="2528" width="32" height="32" /><rect x="576" y="2528" width="32" height="32" /><rect x="608" y="2528" width="32" height="32" /><rect x="640" y="2528" width="32" height="32" /><rect x="672" y="2528" width="32" height="32" /><rect x="704" y="2528" width="32" height="32" /><rect x="736" y="2528" width="32" height="32" /><rect x="768" y="2528" width="32" height="32" /><rect x="800" y="2528" width="32" height="32" /></g>
</svg>