<?xml version="1.0" encoding="utf-8"?>
<!-- Generator: Adobe Illustrator 28.0.0, SVG Export Plug-In . SVG Version: 6.00 Build 0)  -->
<svg version="1.1" id="Capa_1" xmlns="http://www.w3.org/2000/svg" xmlns:xlink="http://www.w3.org/1999/xlink" x="0px" y="0px"
	 width="320" height="320" viewBox="0 0 320 320" style="enable-background:new 0 0 320 320;" xml:space="preserve">
<style type="text/css">
	.st0{fill:#79B94B;}
	.st1{fill:#67A13D;}
	.st2{fill:#5E9537;}
	.st3{fill:#4A7A2D;}
	.st4{fill:#7A6654;}
	.st5{fill:#8F7A66;}
	.st6{fill:#675645;}
	.st7{fill:#8A735F;}
	.st8{fill:#5A4B3D;}
	.st9{fill:#4F6F8F;}
	.st10{fill:#6A88A7;}
	.st11{fill:#3E5770;}
	.st12{fill:#6D8BA9;}
	.st13{fill:#33485D;}
	.st14{opacity:0.5;fill:#A26DB7;enable-background:new    ;}
	.st15{opacity:0.85;fill:#F2D9FF;enable-background:new    ;}
	.st16{fill:#FF66E5;}
	.st17{fill:#FFB900;}
	.st18{fill:#F6FF75;}
	.st19{fill:#0FFFCA;}
	.st20{fill:#0600F9;}
</style>
<rect class="st0" width="32" height="32"/>
<rect y="7" class="st1" width="32" height="5"/>
<rect y="22" class="st2" width="32" height="4"/>
<rect y="26" class="st3" width="32" height="6"/>
<rect x="32" class="st4" width="32" height="32"/>
<rect x="32" y="6" class="st5" width="32" height="3"/>
<rect x="32" y="12" class="st6" width="32" height="3"/>
<rect x="32" y="19" class="st7" width="32" height="4"/>
<rect x="32" y="26" class="st8" width="32" height="6"/>
<rect x="64" class="st9" width="32" height="32"/>
<rect x="64" y="6" class="st10" width="32" height="3"/>
<rect x="64" y="12" class="st11" width="32" height="3"/>
<rect x="64" y="18" class="st12" width="32" height="3"/>
<rect x="64" y="24" class="st13" width="32" height="8"/>
<rect x="96" class="st14" width="32" height="32"/>
<rect x="96" y="8" class="st15" width="32" height="2"/>
<rect x="96" y="15" class="st15" width="32" height="2"/>
<rect x="96" y="22" class="st15" width="32" height="2"/>
<rect x="128" class="st16" width="32" height="32"/>
<rect x="128" y="7" class="st1" width="32" height="5"/>
<rect x="128" y="22" class="st2" width="32" height="4"/>
<rect x="128" y="26" class="st3" width="32" height="6"/>
<rect x="160" class="st17" width="32" height="32"/>
<rect x="160" y="6" class="st5" width="32" height="3"/>
<rect x="160" y="12" class="st6" width="32" height="3"/>
<rect x="160" y="19" class="st7" width="32" height="4"/>
<rect x="160" y="26" class="st8" width="32" height="6"/>
<rect x="256" class="st18" width="32" height="32"/>
<rect x="256" y="7" class="st1" width="32" height="5"/>
<rect x="256" y="22" class="st2" width="32" height="4"/>
<rect x="256" y="26" class="st3" width="32" height="6"/>
<rect x="288" class="st19" width="32" height="32"/>
<rect x="288" y="6" class="st5" width="32" height="3"/>
<rect x="288" y="12" class="st6" width="32" height="3"/>
<rect x="288" y="19" class="st7" width="32" height="4"/>
<rect x="288" y="26" class="st8" width="32" height="6"/>
<rect x="192" class="st20" width="32" height="32"/>
<rect x="192" y="6" class="st10" width="32" height="3"/>
<rect x="192" y="12" class="st11" width="32" height="3"/>
<rect x="192" y="18" class="st12" width="32" height="3"/>
<rect x="192" y="24" class="st13" width="32" height="8"/>
<rect x="224" class="st14" width="32" height="32"/>
<rect x="224" y="8" class="st15" width="32" height="2"/>
<rect x="224" y="15" class="st15" width="32" height="2"/>
<rect x="224" y="22" class="st15" width="32" height="2"/>
</svg>
